<svg width="443" height="707" viewBox="0 0 443 707" fill="none" xmlns="http://www.w3.org/2000/svg">
<g clip-path="url(#clip0_1_23)">
<g opacity="0.3" filter="url(#filter0_f_1_23)">
<path fill-rule="evenodd" clip-rule="evenodd" d="M514.209 310.001C503.173 344.669 477.914 371.19 455.037 399.462C435.326 423.821 414.32 445.535 389.292 464.373C361.414 485.356 335.122 514.558 300.273 515.946C265.311 517.339 235.951 491.407 207.067 471.634C179.911 453.044 160.575 427.427 137.166 404.286C105.126 372.612 49.8334 354.642 43.5661 310.001C37.5073 266.845 81.4887 233.35 108.353 199.061C132.162 168.671 158.738 141.755 191.438 121.262C225.015 100.219 261.082 73.0194 300.273 78.7846C339.401 84.5404 356.038 134.499 392.088 150.779C434.116 169.758 496.755 143.58 524.836 180.192C551.703 215.222 527.604 267.919 514.209 310.001Z" fill="#FF9882"/>
</g>
<g opacity="0.3" filter="url(#filter1_f_1_23)">
<path fill-rule="evenodd" clip-rule="evenodd" d="M573.209 432.001C562.173 466.669 536.914 493.19 514.037 521.462C494.326 545.821 473.32 567.535 448.292 586.373C420.414 607.356 394.122 636.558 359.273 637.946C324.311 639.339 294.951 613.407 266.067 593.634C238.911 575.044 219.575 549.427 196.166 526.286C164.126 494.612 108.833 476.642 102.566 432.001C96.5073 388.845 140.489 355.35 167.353 321.061C191.162 290.671 217.738 263.755 250.438 243.262C284.015 222.219 320.082 195.019 359.273 200.785C398.401 206.54 415.038 256.499 451.088 272.779C493.116 291.758 555.755 265.58 583.836 302.192C610.703 337.222 586.604 389.919 573.209 432.001Z" fill="#FFFA82"/>
</g>
</g>
<defs>
<filter id="filter0_f_1_23" x="-77" y="-42" width="734" height="678" filterUnits="userSpaceOnUse" color-interpolation-filters="sRGB">
<feFlood flood-opacity="0" result="BackgroundImageFix"/>
<feBlend mode="normal" in="SourceGraphic" in2="BackgroundImageFix" result="shape"/>
<feGaussianBlur stdDeviation="60" result="effect1_foregroundBlur_1_23"/>
</filter>
<filter id="filter1_f_1_23" x="-18" y="80" width="734" height="678" filterUnits="userSpaceOnUse" color-interpolation-filters="sRGB">
<feFlood flood-opacity="0" result="BackgroundImageFix"/>
<feBlend mode="normal" in="SourceGraphic" in2="BackgroundImageFix" result="shape"/>
<feGaussianBlur stdDeviation="60" result="effect1_foregroundBlur_1_23"/>
</filter>
<clipPath id="clip0_1_23">
<rect x="-997" y="-1374" width="1440" height="4590" rx="16" fill="white"/>
</clipPath>
</defs>
</svg>
